<svg version="1.1" xmlns="http://www.w3.org/2000/svg" viewBox="0 0 637 334.1486833926008" width="637" height="334.1486833926008">
  <!-- svg-source:excalidraw -->
  
  <defs>
    <style class="style-fonts">
      
    </style>
    
  </defs>
  <rect x="0" y="0" width="637" height="334.1486833926008" fill="#ffffff"></rect><g stroke-linecap="round" transform="translate(10 141) rotate(0 48 61)"><path d="M24 0 C39.9 0, 54.25 1.08, 72 0 M24 0 C39.4 -0.54, 52.93 0.65, 72 0 M72 0 C87.7 -0.28, 97.9 7.16, 96 24 M72 0 C86.55 -0.35, 95.74 9.95, 96 24 M96 24 C96.31 39.99, 95.75 56.4, 96 98 M96 24 C96.9 52.34, 96.19 81.01, 96 98 M96 98 C95.66 115.95, 86.15 120.26, 72 122 M96 98 C93.74 115.6, 89.27 122.13, 72 122 M72 122 C54.32 121.23, 37.59 121.19, 24 122 M72 122 C52.77 120.79, 33.09 120.65, 24 122 M24 122 C7.39 120.76, 0.73 115.06, 0 98 M24 122 C10.25 120.88, 1.54 115.82, 0 98 M0 98 C2.06 80.23, -0.29 64.19, 0 24 M0 98 C1.45 71, -0.37 42.96, 0 24 M0 24 C-1.93 9.38, 7.72 -0.53, 24 0 M0 24 C-2.01 6.24, 8.77 -0.91, 24 0" stroke="#1e1e1e" stroke-width="2" fill="none"></path></g><g stroke-linecap="round" transform="translate(531 152) rotate(0 48 61)"><path d="M24 0 C36.01 -0.28, 50.48 1.06, 72 0 M24 0 C41.61 1.03, 57.05 -0.58, 72 0 M72 0 C87.77 1.46, 94.24 7.11, 96 24 M72 0 C85.92 1.77, 94.05 6.46, 96 24 M96 24 C98.22 50.39, 98.05 80.36, 96 98 M96 24 C95.69 43.85, 95.29 63.71, 96 98 M96 98 C96.96 112.67, 87.47 123.8, 72 122 M96 98 C95.53 112.76, 88.54 122.14, 72 122 M72 122 C61.54 120.47, 52.35 121.06, 24 122 M72 122 C58.86 122.35, 45.35 121.41, 24 122 M24 122 C7.66 122.68, 1.56 113.22, 0 98 M24 122 C7.64 123.57, 2.2 115.26, 0 98 M0 98 C-1.54 81.33, -1.15 67.99, 0 24 M0 98 C0.58 69.36, 0.9 41.61, 0 24 M0 24 C-1.01 8.65, 8.77 -1.01, 24 0 M0 24 C-1.54 8.23, 9.7 2.17, 24 0" stroke="#1e1e1e" stroke-width="2" fill="none"></path></g><g stroke-linecap="round" transform="translate(369 10) rotate(0 48 61)"><path d="M24 0 C37.39 -1.23, 48.21 1.33, 72 0 M24 0 C35.11 -0.83, 44.32 -0.85, 72 0 M72 0 C89.54 -1.7, 94.66 9.65, 96 24 M72 0 C90.08 -2.29, 97.79 5.79, 96 24 M96 24 C94.15 49.77, 96.56 77.8, 96 98 M96 24 C94.76 45.45, 96.32 67.23, 96 98 M96 98 C94.93 114.47, 88.12 120.42, 72 122 M96 98 C96.15 115.36, 88.17 119.91, 72 122 M72 122 C52.31 123.63, 36.94 121.82, 24 122 M72 122 C53.56 122.7, 34.04 121.76, 24 122 M24 122 C9.37 123.92, 1.1 112.03, 0 98 M24 122 C8.34 119.72, -1.64 111.99, 0 98 M0 98 C-1.17 81.61, 0.31 60.94, 0 24 M0 98 C-0.05 72.9, -0.88 46.35, 0 24 M0 24 C0.2 9.48, 9.88 0.75, 24 0 M0 24 C0.95 9.06, 6.61 1.87, 24 0" stroke="#1e1e1e" stroke-width="2" fill="none"></path></g><g stroke-linecap="round" transform="translate(160 10) rotate(0 48 61)"><path d="M24 0 C40 0.18, 60.71 -1.36, 72 0 M24 0 C35.42 -1.04, 49.37 0.54, 72 0 M72 0 C86.01 1.55, 94.07 9.38, 96 24 M72 0 C87.68 -0.61, 93.99 6.24, 96 24 M96 24 C94.16 49.63, 94.38 72.8, 96 98 M96 24 C96.09 52.9, 95.06 81.75, 96 98 M96 98 C97.18 114.15, 86.18 123.57, 72 122 M96 98 C94.59 113.7, 86.26 123.94, 72 122 M72 122 C52.51 122.1, 37.67 124, 24 122 M72 122 C60.44 122.88, 45.98 122.48, 24 122 M24 122 C6.01 120.57, -1.74 112.96, 0 98 M24 122 C7.81 123.94, -1.41 116.24, 0 98 M0 98 C1.15 73.86, 0.79 52.52, 0 24 M0 98 C1.24 80.47, 0.87 61.48, 0 24 M0 24 C0.93 6.79, 9.63 0.2, 24 0 M0 24 C-0.1 10.23, 8.6 -1.04, 24 0" stroke="#1e1e1e" stroke-width="2" fill="none"></path></g><g stroke-linecap="round"><g transform="translate(98 285) rotate(0 206.5 19.5)"><path d="M0.58 -0.11 C35.94 6.05, 143.19 38.01, 212.11 38.09 C281.03 38.17, 380.45 6.77, 414.1 0.36 M-0.58 -1.22 C34.64 5.58, 142.13 39.24, 211.21 39.15 C280.3 39.05, 379.98 4.64, 413.91 -1.8" stroke="#1e1e1e" stroke-width="2" fill="none"></path></g><g transform="translate(98 285) rotate(0 206.5 19.5)"><path d="M25.36 -3.45 C17.91 -2.17, 9.29 0.47, 0.58 -0.11 M25.36 -3.45 C17.78 -2.37, 9.82 -2.19, 0.58 -0.11" stroke="#1e1e1e" stroke-width="2" fill="none"></path></g><g transform="translate(98 285) rotate(0 206.5 19.5)"><path d="M21.7 13.26 C15.18 9.6, 7.64 7.33, 0.58 -0.11 M21.7 13.26 C15.19 8.84, 8.44 3.51, 0.58 -0.11" stroke="#1e1e1e" stroke-width="2" fill="none"></path></g><g transform="translate(98 285) rotate(0 206.5 19.5)"><path d="M393.27 12.3 C399.02 8.23, 403.77 5.74, 413.91 -1.8 M393.27 12.3 C400.52 7.78, 407.54 2.21, 413.91 -1.8" stroke="#1e1e1e" stroke-width="2" fill="none"></path></g><g transform="translate(98 285) rotate(0 206.5 19.5)"><path d="M389.03 -4.27 C396.18 -3.48, 402.18 -1.1, 413.91 -1.8 M389.03 -4.27 C397.83 -3.31, 406.24 -3.42, 413.91 -1.8" stroke="#1e1e1e" stroke-width="2" fill="none"></path></g></g><mask></mask><g stroke-linecap="round"><g transform="translate(271 38) rotate(0 44.5 -4.5)"><path d="M1.04 0.59 C7.77 -0.73, 25.15 -8.27, 39.97 -8.88 C54.78 -9.5, 81.95 -4.38, 89.94 -3.11 M0.13 -0.15 C6.73 -1.16, 24.08 -6.91, 39 -7.29 C53.93 -7.66, 81.58 -3.01, 89.66 -2.37" stroke="#1e1e1e" stroke-width="2" fill="none"></path></g><g transform="translate(271 38) rotate(0 44.5 -4.5)"><path d="M17.55 -11.56 C14.03 -8.22, 8.83 -3.37, 1.04 0.59 M17.55 -11.56 C13.39 -9.85, 10.71 -7.2, 1.04 0.59" stroke="#1e1e1e" stroke-width="2" fill="none"></path></g><g transform="translate(271 38) rotate(0 44.5 -4.5)"><path d="M21.5 1.9 C17.03 1.67, 10.78 2.94, 1.04 0.59 M21.5 1.9 C16.65 0.83, 13.14 0.69, 1.04 0.59" stroke="#1e1e1e" stroke-width="2" fill="none"></path></g><g transform="translate(271 38) rotate(0 44.5 -4.5)"><path d="M65.56 3.24 C73.02 1.48, 78.67 1.59, 89.66 -2.37 M65.56 3.24 C70.01 1, 75.76 -0.03, 89.66 -2.37" stroke="#1e1e1e" stroke-width="2" fill="none"></path></g><g transform="translate(271 38) rotate(0 44.5 -4.5)"><path d="M67.59 -13.57 C74.38 -10.82, 79.48 -6.22, 89.66 -2.37 M67.59 -13.57 C71.46 -12.3, 76.79 -9.84, 89.66 -2.37" stroke="#1e1e1e" stroke-width="2" fill="none"></path></g></g><mask></mask><g stroke-linecap="round"><g transform="translate(84 132) rotate(0 32.5 -24.5)"><path d="M-0.98 0.53 C2.63 -5.14, 9.94 -24.39, 20.84 -32.83 C31.75 -41.26, 57.16 -47.19, 64.46 -50.08 M0.71 -0.24 C4.73 -5.7, 12.5 -26.15, 22.95 -34.33 C33.4 -42.51, 56.45 -46.78, 63.42 -49.32" stroke="#1e1e1e" stroke-width="2" fill="none"></path></g><g transform="translate(84 132) rotate(0 32.5 -24.5)"><path d="M2.16 -19.48 C2.49 -16.73, 2.83 -10.99, -0.98 0.53 M2.16 -19.48 C1.27 -15.36, 0.91 -10.31, -0.98 0.53" stroke="#1e1e1e" stroke-width="2" fill="none"></path></g><g transform="translate(84 132) rotate(0 32.5 -24.5)"><path d="M14.28 -12.78 C11.7 -11.71, 9.19 -7.54, -0.98 0.53 M14.28 -12.78 C10.86 -10.19, 7.95 -6.54, -0.98 0.53" stroke="#1e1e1e" stroke-width="2" fill="none"></path></g><g transform="translate(84 132) rotate(0 32.5 -24.5)"><path d="M44.99 -35.95 C50.07 -40.88, 55.49 -42.99, 63.42 -49.32 M44.99 -35.95 C48.72 -38.65, 52.89 -40.62, 63.42 -49.32" stroke="#1e1e1e" stroke-width="2" fill="none"></path></g><g transform="translate(84 132) rotate(0 32.5 -24.5)"><path d="M40.7 -50.93 C46.94 -52.29, 53.36 -50.88, 63.42 -49.32 M40.7 -50.93 C45.3 -50.44, 50.37 -49.25, 63.42 -49.32" stroke="#1e1e1e" stroke-width="2" fill="none"></path></g></g><mask></mask><g stroke-linecap="round"><g transform="translate(478 77) rotate(0 33 30)"><path d="M0.27 0.88 C7.65 4.51, 32.42 10.87, 43.3 20.68 C54.19 30.5, 61.91 53.21, 65.56 59.77 M-1.05 0.29 C6.29 3.67, 31.58 8.8, 42.52 18.92 C53.45 29.03, 60.81 53.93, 64.56 60.96" stroke="#1e1e1e" stroke-width="2" fill="none"></path></g><g transform="translate(478 77) rotate(0 33 30)"><path d="M23.98 1.45 C20.3 1.89, 14.83 0.52, 0.27 0.88 M23.98 1.45 C17.37 1.26, 9.96 1.68, 0.27 0.88" stroke="#1e1e1e" stroke-width="2" fill="none"></path></g><g transform="translate(478 77) rotate(0 33 30)"><path d="M18.06 16.55 C15.8 13.7, 11.62 9.06, 0.27 0.88 M18.06 16.55 C13.21 12.12, 7.46 8.31, 0.27 0.88" stroke="#1e1e1e" stroke-width="2" fill="none"></path></g><g transform="translate(478 77) rotate(0 33 30)"><path d="M48.84 44.08 C53.56 48.21, 56.64 50.63, 64.56 60.96 M48.84 44.08 C53.19 48.78, 56.84 54.11, 64.56 60.96" stroke="#1e1e1e" stroke-width="2" fill="none"></path></g><g transform="translate(478 77) rotate(0 33 30)"><path d="M63.38 37.92 C64.88 43.43, 64.81 47.18, 64.56 60.96 M63.38 37.92 C63.6 44.35, 63.17 51.41, 64.56 60.96" stroke="#1e1e1e" stroke-width="2" fill="none"></path></g></g><mask></mask><g stroke-linecap="round"><g transform="translate(129 248) rotate(0 124 -58)"><path d="M-0.57 0.96 C24.53 -4.57, 108.41 -14.52, 149.83 -33.84 C191.24 -53.17, 231.74 -101.41, 247.91 -114.97 M1.34 0.42 C26.33 -5.35, 107.83 -15.83, 148.79 -35.36 C189.75 -54.89, 230.81 -103.11, 247.09 -116.77" stroke="#1e1e1e" stroke-width="2" fill="none"></path></g><g transform="translate(129 248) rotate(0 124 -58)"><path d="M20.92 -11.82 C17.41 -9.21, 12.7 -6.08, -0.57 0.96 M20.92 -11.82 C11.86 -6.16, 5.21 -1.9, -0.57 0.96" stroke="#1e1e1e" stroke-width="2" fill="none"></path></g><g transform="translate(129 248) rotate(0 124 -58)"><path d="M24.11 4.98 C19.95 3.63, 14.49 2.83, -0.57 0.96 M24.11 4.98 C13.98 4.18, 6.1 1.96, -0.57 0.96" stroke="#1e1e1e" stroke-width="2" fill="none"></path></g><g transform="translate(129 248) rotate(0 124 -58)"><path d="M236.11 -94.32 C240.41 -99.82, 243.31 -104.95, 247.09 -116.77 M236.11 -94.32 C239.92 -102.46, 245.78 -111.79, 247.09 -116.77" stroke="#1e1e1e" stroke-width="2" fill="none"></path></g><g transform="translate(129 248) rotate(0 124 -58)"><path d="M224.24 -106.63 C231.26 -109.19, 236.94 -111.43, 247.09 -116.77 M224.24 -106.63 C232.51 -110.1, 242.95 -114.69, 247.09 -116.77" stroke="#1e1e1e" stroke-width="2" fill="none"></path></g></g><mask></mask><g stroke-linecap="round"><g transform="translate(506 250) rotate(0 -129.5 -53.5)"><path d="M-1.04 -0.59 C-26.49 -5.73, -108.66 -12.3, -151.84 -30.22 C-195.02 -48.14, -242.27 -95.52, -260.1 -108.13 M0.62 1.71 C-24.97 -3.82, -109.11 -13.75, -152.18 -31.94 C-195.24 -50.12, -240.07 -94.76, -257.78 -107.4" stroke="#1e1e1e" stroke-width="2" fill="none"></path></g><g transform="translate(506 250) rotate(0 -129.5 -53.5)"><path d="M-25.57 4.22 C-17.39 4.56, -5.92 -1.01, -1.04 -0.59 M-25.57 4.22 C-20.67 3.57, -15.58 2.94, -1.04 -0.59" stroke="#1e1e1e" stroke-width="2" fill="none"></path></g><g transform="translate(506 250) rotate(0 -129.5 -53.5)"><path d="M-22.92 -12.68 C-15.65 -6.02, -5.17 -5.27, -1.04 -0.59 M-22.92 -12.68 C-18.54 -9.81, -14 -6.96, -1.04 -0.59" stroke="#1e1e1e" stroke-width="2" fill="none"></path></g><g transform="translate(506 250) rotate(0 -129.5 -53.5)"><path d="M-234.2 -99.11 C-244.06 -100.49, -250.61 -107.36, -257.78 -107.4 M-234.2 -99.11 C-239.23 -100.01, -244.06 -101.36, -257.78 -107.4" stroke="#1e1e1e" stroke-width="2" fill="none"></path></g><g transform="translate(506 250) rotate(0 -129.5 -53.5)"><path d="M-245.04 -85.89 C-250.91 -92.12, -253.4 -103.95, -257.78 -107.4 M-245.04 -85.89 C-247.86 -89.62, -250.45 -93.7, -257.78 -107.4" stroke="#1e1e1e" stroke-width="2" fill="none"></path></g></g><mask></mask><g stroke-linecap="round" transform="translate(28.78612258624753 158.78565371445438) rotate(0 12.016938750559007 42.19280716862943)"><path d="M6.01 0 C12.33 -1.43, 16.24 0.49, 18.03 0 C21.07 -0.38, 20.89 2.27, 24.03 6.01 C23.83 18.78, 26.03 34.75, 24.03 78.38 C24.5 82.28, 20.03 83.47, 18.03 84.39 C15.45 83.9, 10.94 84.41, 6.01 84.39 C2.56 86.6, -2.44 80.62, 0 78.38 C3.36 55.79, 3.03 29.78, 0 6.01 C1.14 -0.81, 2.19 -0.41, 6.01 0" stroke="none" stroke-width="0" fill="#ffa94d"></path><path d="M6.01 0 C9.86 -0.93, 13.07 0.21, 18.03 0 M6.01 0 C9.19 0.22, 12.33 -0.02, 18.03 0 M18.03 0 C22.49 1.84, 24.86 0.95, 24.03 6.01 M18.03 0 C19.88 1.49, 22.05 0.19, 24.03 6.01 M24.03 6.01 C23.34 25.61, 22.76 48.6, 24.03 78.38 M24.03 6.01 C23.83 28.85, 24.75 51.5, 24.03 78.38 M24.03 78.38 C25.58 81.87, 21.46 86.12, 18.03 84.39 M24.03 78.38 C23.78 83.13, 21.74 83.46, 18.03 84.39 M18.03 84.39 C12.62 84.11, 8.04 84.11, 6.01 84.39 M18.03 84.39 C13.4 84.2, 9.47 84.23, 6.01 84.39 M6.01 84.39 C1.85 82.49, 1.39 82.88, 0 78.38 M6.01 84.39 C1.65 85.69, -0.73 82.52, 0 78.38 M0 78.38 C1.26 58.42, 1.5 40.18, 0 6.01 M0 78.38 C0.31 58.18, -1.33 39.22, 0 6.01 M0 6.01 C1.09 0.87, 0.36 -1.88, 6.01 0 M0 6.01 C-2.12 2.68, 2.95 -0.85, 6.01 0" stroke="#1e1e1e" stroke-width="1" fill="none"></path></g><g stroke-linecap="round" transform="translate(62.967637254504325 159.8538260478374) rotate(0 11.215809500521743 21.630489751006223)"><path d="M5.61 0 C10.52 0.68, 12.9 -0.09, 16.82 0 C17.42 0.27, 19.3 4.97, 22.43 5.61 C23.09 16.07, 22.68 30.62, 22.43 37.65 C20.43 40.47, 21.21 45.6, 16.82 43.26 C14.77 43.4, 11.98 44.47, 5.61 43.26 C-0.57 41.49, 1.02 39.31, 0 37.65 C1.85 27.24, 0.73 16.12, 0 5.61 C0.18 1.46, 3 -1.99, 5.61 0" stroke="none" stroke-width="0" fill="#ffa94d"></path><path d="M5.61 0 C8.07 0.19, 9.68 0.62, 16.82 0 M5.61 0 C9.28 -0.07, 12.2 0.48, 16.82 0 M16.82 0 C21.39 -1.05, 20.56 3.16, 22.43 5.61 M16.82 0 C18.58 -1.82, 22.25 3.1, 22.43 5.61 M22.43 5.61 C20.6 16.07, 22.43 27.62, 22.43 37.65 M22.43 5.61 C22.27 18.33, 22.94 29.11, 22.43 37.65 M22.43 37.65 C21.86 43.12, 20.35 43.91, 16.82 43.26 M22.43 37.65 C22.14 40.47, 22.72 44.12, 16.82 43.26 M16.82 43.26 C12.75 42.95, 10.04 42.78, 5.61 43.26 M16.82 43.26 C13.97 43.2, 11.97 42.72, 5.61 43.26 M5.61 43.26 C3.26 43.75, -0.3 42.53, 0 37.65 M5.61 43.26 C1.14 43.4, -0.94 42.81, 0 37.65 M0 37.65 C1.68 29.97, -0.93 25.57, 0 5.61 M0 37.65 C-0.97 24.43, 0.23 11.6, 0 5.61 M0 5.61 C-1.64 -0.01, 0.03 0.59, 5.61 0 M0 5.61 C0.95 1.01, 3.73 -2.24, 5.61 0" stroke="#1e1e1e" stroke-width="1" fill="none"></path></g><g stroke-linecap="round" transform="translate(61.89946492112131 220.73964905066964) rotate(0 11.482852583867498 10.41468025048448)"><path d="M5.21 0 C7.6 -0.3, 9.23 0.11, 17.76 0 C18.1 3.1, 26.27 0.41, 22.97 5.21 C23.25 7.51, 21.97 9.45, 22.97 15.62 C23.62 21.44, 18.71 22.91, 17.76 20.83 C14.54 22.24, 9.08 19.74, 5.21 20.83 C2.76 18.75, -0.28 21.7, 0 15.62 C0.48 10.69, -0.02 8.47, 0 5.21 C1.13 -0.26, 5.06 -2.75, 5.21 0" stroke="none" stroke-width="0" fill="#ffa94d"></path><path d="M5.21 0 C7.18 0.58, 10.42 0.52, 17.76 0 M5.21 0 C9.54 0.59, 13.85 -0.32, 17.76 0 M17.76 0 C19.36 1.29, 21.24 0.16, 22.97 5.21 M17.76 0 C21.05 1.23, 23.36 0.49, 22.97 5.21 M22.97 5.21 C22.97 8.41, 23.61 8.99, 22.97 15.62 M22.97 5.21 C23.38 8.74, 22.83 12.98, 22.97 15.62 M22.97 15.62 C22.75 19.75, 20.98 20.03, 17.76 20.83 M22.97 15.62 C25.12 19.95, 21.69 19.55, 17.76 20.83 M17.76 20.83 C14.76 20.29, 9.79 19.56, 5.21 20.83 M17.76 20.83 C14.11 20.23, 11 20.97, 5.21 20.83 M5.21 20.83 C1.43 21.96, -0.63 19.21, 0 15.62 M5.21 20.83 C0.8 22.25, -1.89 21.05, 0 15.62 M0 15.62 C-0.44 14.11, 0.92 11.67, 0 5.21 M0 15.62 C0.35 13.1, -0.36 10.67, 0 5.21 M0 5.21 C-1.84 2.33, 2.56 -0.74, 5.21 0 M0 5.21 C1.86 -0.5, 2.86 1.85, 5.21 0" stroke="#1e1e1e" stroke-width="1" fill="none"></path></g><g stroke-linecap="round"><g transform="translate(178.7652387324838 71.44686410841888) rotate(0 15.82211339576827 -19.579865327263235)" fill-rule="evenodd"><path d="M-2.11 -1.93 C-1.49 -8.51, -4.3 -34.79, 1.39 -37.85 C7.08 -40.91, 32.61 -26.28, 32.06 -20.31 C31.51 -14.34, 3.39 -5.45, -1.89 -2.03" stroke="none" stroke-width="0" fill="#1e1e1e" fill-rule="evenodd"></path><path d="M0.56 -0.15 C0.89 -6.49, -3.25 -35.6, 2.09 -38.75 C7.42 -41.91, 32.88 -25.7, 32.58 -19.05 C32.28 -12.41, 5.62 -1.96, 0.28 1.11 M-0.6 -1.27 C-0.39 -7.92, -4.08 -37.91, 1.4 -40.66 C6.89 -43.41, 32.43 -24.41, 32.31 -17.77 C32.19 -11.14, 6.17 -3.74, 0.67 -0.87" stroke="#1e1e1e" stroke-width="1" fill="none"></path></g></g><mask></mask><g stroke-linecap="round"><g transform="translate(179.25010770314248 111.57886587313686) rotate(0 15.82211339576827 -19.579865327263235)" fill-rule="evenodd"><path d="M-0.19 1.31 C0.49 -5.12, -2.99 -36.76, 2 -40.48 C6.99 -44.2, 30.02 -27.8, 29.75 -21.01 C29.48 -14.23, 4.99 -3.58, 0.38 0.21" stroke="none" stroke-width="0" fill="#868e96" fill-rule="evenodd"></path><path d="M0.51 0.41 C0.83 -6.11, -2.72 -36.18, 2.52 -39.23 C7.76 -42.28, 32.26 -24.31, 31.92 -17.88 C31.58 -11.45, 6 -3.74, 0.5 -0.63 M-0.69 -0.43 C-0.49 -6.73, -3.27 -34.52, 2.06 -37.73 C7.4 -40.93, 31.48 -25.95, 31.3 -19.64 C31.12 -13.33, 6.14 -3.4, 1 0.14" stroke="#1e1e1e" stroke-width="1" fill="none"></path></g></g><mask></mask><g stroke-linecap="round"><g transform="translate(212.47654583425583 92.98788263310922) rotate(0 15.82211339576827 -19.579865327263235)" fill-rule="evenodd"><path d="M0.41 -1.32 C0.39 -8.41, -5.58 -38.28, -0.31 -41.19 C4.96 -44.1, 31.62 -25.93, 32.02 -18.78 C32.42 -11.63, 7.75 -1.61, 2.08 1.73" stroke="none" stroke-width="0" fill="#fd7e14" fill-rule="evenodd"></path><path d="M0.94 -0.07 C1.16 -6.48, -3.34 -34.8, 1.86 -38.05 C7.06 -41.31, 32.64 -26.09, 32.14 -19.62 C31.64 -13.15, 4.41 -2.34, -1.12 0.78 M-0.03 -1.15 C0.02 -7.9, -4.22 -36.68, 1.06 -39.6 C6.33 -42.51, 32.06 -25, 31.64 -18.63 C31.22 -12.26, 3.71 -4.3, -1.46 -1.37" stroke="#1e1e1e" stroke-width="1" fill="none"></path></g></g><mask></mask><g stroke-linecap="round"><g transform="translate(431.8378677101264 67.2112486461445) rotate(0 -16.184018433014444 -16.714641988195297)" fill-rule="evenodd"><path d="M0.49 -1.37 C1.25 -2.98, 5.72 -5.77, 6.81 -8.76 C7.91 -11.74, 8.3 -15.49, 7.09 -19.29 C5.87 -23.09, 3.52 -29.13, -0.45 -31.54 C-4.42 -33.95, -11.62 -33.81, -16.74 -33.76 C-21.85 -33.71, -27.23 -32.55, -31.15 -31.24 C-35.07 -29.94, -40.81 -26.86, -40.24 -25.93 C-39.68 -25, -31.6 -26.5, -27.74 -25.66 C-23.88 -24.82, -19.46 -23.13, -17.09 -20.9 C-14.71 -18.67, -14.67 -14.1, -13.47 -12.27 C-12.28 -10.44, -11.04 -10.68, -9.92 -9.92 C-8.81 -9.17, -7.93 -8.68, -6.78 -7.73 C-5.64 -6.79, -4.06 -5.4, -3.07 -4.25 C-2.08 -3.09, -1.75 -1.91, -0.86 -0.8" stroke="none" stroke-width="0" fill="#fd7e14" fill-rule="evenodd"></path><path d="M0.28 1.11 C1.44 -0.27, 6.88 -4.91, 7.93 -8.33 C8.97 -11.74, 7.98 -15.71, 6.57 -19.39 C5.17 -23.07, 3 -28.16, -0.5 -30.4 C-4 -32.63, -9.67 -32.57, -14.42 -32.79 C-19.17 -33, -24.55 -33.05, -28.98 -31.69 C-33.41 -30.33, -40.94 -25.53, -40.99 -24.61 C-41.04 -23.69, -33.48 -26.69, -29.26 -26.16 C-25.05 -25.64, -18.29 -23.83, -15.69 -21.44 C-13.1 -19.04, -14.83 -13.64, -13.68 -11.8 C-12.53 -9.96, -10.44 -10.7, -8.8 -10.42 C-7.16 -10.14, -4.99 -10.93, -3.85 -10.12 C-2.7 -9.32, -2.56 -7.35, -1.94 -5.59 C-1.32 -3.84, -0.43 -0.46, -0.13 0.39 M-1.04 0.64 C-0.07 -0.58, 5.59 -3.46, 7.24 -7.12 C8.89 -10.78, 10.22 -17.55, 8.88 -21.32 C7.54 -25.1, 3.34 -28, -0.8 -29.79 C-4.93 -31.58, -11.5 -32.12, -15.94 -32.06 C-20.39 -32, -23.31 -30.95, -27.46 -29.41 C-31.61 -27.87, -40.38 -23.31, -40.83 -22.81 C-41.29 -22.32, -34.19 -26.52, -30.19 -26.45 C-26.19 -26.38, -19.62 -24.8, -16.83 -22.38 C-14.04 -19.96, -14.83 -13.56, -13.43 -11.93 C-12.03 -10.29, -9.86 -12.76, -8.42 -12.56 C-6.98 -12.36, -5.86 -11.82, -4.78 -10.71 C-3.69 -9.59, -2.53 -7.73, -1.89 -5.87 C-1.24 -4.02, -1.23 -0.36, -0.9 0.4" stroke="#1e1e1e" stroke-width="1" fill="none"></path></g></g><mask></mask><g stroke-linecap="round"><g transform="translate(385.79995735110606 88.00979692510629) rotate(0 14.023622529778436 -23.625382099716717)" fill-rule="evenodd"><path d="M-0.78 0.15 C-1.56 -1.5, -3.98 -5.89, -5.04 -8.47 C-6.11 -11.05, -7 -13.31, -7.19 -15.35 C-7.37 -17.4, -6.6 -18.17, -6.15 -20.73 C-5.71 -23.3, -5.91 -28.43, -4.52 -30.74 C-3.13 -33.06, 0.6 -32.58, 2.18 -34.63 C3.76 -36.68, 4.64 -41.2, 4.96 -43.04 C5.28 -44.87, 2.09 -44.72, 4.1 -45.65 C6.11 -46.58, 14.16 -48.17, 17 -48.63 C19.83 -49.09, 19.26 -49.6, 21.11 -48.41 C22.95 -47.22, 25.88 -43.96, 28.07 -41.47 C30.26 -38.99, 34.65 -34.59, 34.24 -33.51 C33.83 -32.42, 27.71 -35.82, 25.61 -34.98 C23.51 -34.14, 23.09 -29.99, 21.67 -28.48 C20.24 -26.98, 18 -26.23, 17.07 -25.95 C16.14 -25.67, 17.08 -26.52, 16.09 -26.8 C15.1 -27.09, 12.84 -27.94, 11.11 -27.66 C9.39 -27.38, 6.95 -27.01, 5.74 -25.12 C4.54 -23.23, 5.11 -18.15, 3.87 -16.33 C2.64 -14.5, -0.84 -16.12, -1.66 -14.18 C-2.48 -12.25, -1.38 -7.06, -1.05 -4.71 C-0.72 -2.36, 0.37 -0.75, 0.32 -0.07" stroke="none" stroke-width="0" fill="#e03131" fill-rule="evenodd"></path><path d="M0.5 -0.63 C-0.41 -2.35, -4.04 -6.25, -5.16 -9.21 C-6.28 -12.16, -6.28 -16.17, -6.21 -18.38 C-6.15 -20.59, -5.23 -20.44, -4.77 -22.48 C-4.31 -24.51, -4.08 -28, -3.46 -30.59 C-2.84 -33.18, -2.08 -36.3, -1.05 -38.01 C-0.03 -39.72, 1.42 -39.9, 2.71 -40.83 C4 -41.77, 4.71 -42.66, 6.71 -43.62 C8.7 -44.59, 11.93 -46.39, 14.68 -46.63 C17.44 -46.88, 20.48 -45.79, 23.24 -45.1 C26 -44.41, 29.64 -44.76, 31.25 -42.5 C32.86 -40.25, 34.17 -33.27, 32.88 -31.56 C31.59 -29.84, 25.59 -32.31, 23.5 -32.2 C21.4 -32.1, 20.95 -31.84, 20.32 -30.93 C19.68 -30.02, 20.47 -27.4, 19.7 -26.71 C18.92 -26.03, 17.09 -26.93, 15.66 -26.82 C14.22 -26.71, 12.8 -26.75, 11.07 -26.04 C9.34 -25.33, 6.89 -23.64, 5.26 -22.57 C3.63 -21.49, 2.49 -21.27, 1.29 -19.6 C0.09 -17.93, -1.29 -15.24, -1.94 -12.54 C-2.59 -9.84, -2.91 -5.28, -2.61 -3.38 C-2.3 -1.48, -0.66 -1.75, -0.09 -1.14 M-0.7 1.65 C-1.28 0.11, -2.51 -7.72, -3.04 -10.92 C-3.57 -14.12, -3.61 -15.27, -3.86 -17.56 C-4.12 -19.86, -4.41 -22.53, -4.57 -24.7 C-4.73 -26.86, -5.57 -28.67, -4.82 -30.54 C-4.08 -32.41, -1.51 -33.98, -0.13 -35.91 C1.25 -37.84, 2.39 -40.86, 3.45 -42.12 C4.51 -43.39, 4.1 -42.59, 6.22 -43.52 C8.33 -44.45, 13.18 -47.44, 16.15 -47.69 C19.13 -47.94, 21.42 -46.02, 24.07 -45.02 C26.72 -44.02, 30.24 -43.94, 32.05 -41.68 C33.87 -39.41, 36.35 -32.91, 34.95 -31.44 C33.55 -29.96, 26.23 -32.83, 23.66 -32.82 C21.09 -32.81, 20.65 -32.34, 19.53 -31.38 C18.42 -30.41, 17.41 -27.95, 16.96 -27.04 C16.51 -26.13, 18.03 -26.17, 16.82 -25.92 C15.6 -25.68, 11.82 -26.22, 9.66 -25.57 C7.49 -24.91, 4.88 -22.92, 3.82 -21.97 C2.76 -21.02, 4.29 -21.75, 3.31 -19.88 C2.32 -18.01, -1.43 -13.29, -2.07 -10.75 C-2.71 -8.2, -0.91 -6.51, -0.54 -4.62 C-0.17 -2.73, -0.15 -0.12, 0.15 0.58" stroke="#1e1e1e" stroke-width="1" fill="none"></path></g></g><mask></mask><g stroke-linecap="round"><g transform="translate(426.22841869821514 103.67582569711095) rotate(0 -20.972264323812738 -20.151061202699566)" fill-rule="evenodd"><path d="M-0.37 1.39 C-2.03 1.61, -6.27 1.66, -8.23 1.92 C-10.19 2.17, -10.5 2.77, -12.12 2.9 C-13.74 3.03, -15.8 2.95, -17.93 2.71 C-20.05 2.48, -22.73 2.95, -24.85 1.5 C-26.98 0.05, -29.2 -4.55, -30.67 -5.98 C-32.15 -7.41, -32.54 -5.21, -33.7 -7.09 C-34.86 -8.97, -35.98 -14.82, -37.62 -17.26 C-39.26 -19.71, -43.09 -19.77, -43.53 -21.77 C-43.97 -23.78, -40.96 -26.53, -40.23 -29.31 C-39.5 -32.08, -40.14 -36.65, -39.16 -38.43 C-38.17 -40.21, -36.47 -39.24, -34.34 -39.96 C-32.22 -40.67, -28.79 -41.98, -26.4 -42.73 C-24.01 -43.48, -21.04 -48.83, -20 -44.45 C-18.96 -40.08, -19.7 -21.79, -20.15 -16.48 C-20.61 -11.16, -23 -13.98, -22.73 -12.56 C-22.45 -11.14, -20.08 -9.32, -18.53 -7.98 C-16.97 -6.64, -15.23 -5.62, -13.4 -4.54 C-11.56 -3.46, -9.83 -2.8, -7.52 -1.5 C-5.21 -0.2, -0.37 3.14, 0.46 3.26" stroke="none" stroke-width="0" fill="#9c36b5" fill-rule="evenodd"></path><path d="M-1.12 0.78 C-2.62 1.02, -6.81 0.61, -8.49 0.82 C-10.17 1.03, -10.01 2.17, -11.21 2.03 C-12.42 1.89, -13.53 0.63, -15.72 -0.02 C-17.9 -0.67, -21.98 -1.03, -24.3 -1.88 C-26.62 -2.72, -27.85 -3.95, -29.63 -5.08 C-31.41 -6.2, -33.09 -7.05, -34.99 -8.63 C-36.89 -10.21, -39.89 -12.72, -41.03 -14.54 C-42.17 -16.37, -41.89 -17.3, -41.83 -19.58 C-41.76 -21.86, -41.36 -25.64, -40.64 -28.23 C-39.92 -30.81, -38.89 -33.08, -37.49 -35.09 C-36.09 -37.11, -33.87 -39.09, -32.22 -40.29 C-30.57 -41.49, -29.46 -42.08, -27.57 -42.3 C-25.67 -42.52, -21.93 -45.49, -20.86 -41.62 C-19.78 -37.76, -21 -23.67, -21.11 -19.12 C-21.22 -14.56, -21.79 -16.33, -21.53 -14.29 C-21.26 -12.26, -20.82 -8.71, -19.5 -6.9 C-18.18 -5.09, -15.39 -4.65, -13.62 -3.42 C-11.85 -2.2, -10.72 -0.25, -8.89 0.47 C-7.05 1.19, -3.8 1.01, -2.61 0.91 M0.49 0.14 C-0.69 0.56, -4.23 1.88, -6.32 1.86 C-8.4 1.84, -10.52 0.21, -12.03 0.03 C-13.53 -0.16, -13.6 1.08, -15.36 0.75 C-17.12 0.41, -20.47 -0.87, -22.6 -2.01 C-24.73 -3.14, -25.64 -4.81, -28.12 -6.06 C-30.6 -7.32, -35.67 -8.11, -37.47 -9.53 C-39.27 -10.94, -37.92 -12.74, -38.92 -14.56 C-39.91 -16.37, -42.75 -18.05, -43.44 -20.43 C-44.13 -22.81, -44.06 -26.04, -43.04 -28.84 C-42.03 -31.64, -38.91 -35.28, -37.35 -37.22 C-35.79 -39.17, -35.36 -39.48, -33.7 -40.51 C-32.05 -41.53, -29.54 -43.2, -27.42 -43.38 C-25.29 -43.56, -22.1 -45.47, -20.97 -41.58 C-19.84 -37.69, -20.71 -24.74, -20.65 -20.02 C-20.6 -15.31, -20.61 -15.66, -20.65 -13.31 C-20.69 -10.96, -22.44 -7.54, -20.91 -5.93 C-19.39 -4.31, -13.78 -4.69, -11.5 -3.59 C-9.22 -2.5, -8.71 -0.41, -7.23 0.64 C-5.76 1.7, -3.35 2.56, -2.62 2.74" stroke="#1e1e1e" stroke-width="1" fill="none"></path></g></g><mask></mask><g stroke-linecap="round"><g transform="translate(418.5217432539225 76.89197005465138) rotate(0 10.233454278486988 12.191707874987515)" fill-rule="evenodd"><path d="M-2.01 2.08 C-2.87 2.25, -4.07 1.65, -6.15 2.51 C-8.24 3.38, -13.72 4.8, -14.5 7.28 C-15.28 9.77, -11.99 15.51, -10.83 17.42 C-9.67 19.33, -8.14 17.72, -7.55 18.74 C-6.96 19.77, -8.69 22.5, -7.27 23.58 C-5.85 24.67, -0.83 24.95, 0.95 25.27 C2.73 25.59, 2.38 25.15, 3.42 25.5 C4.47 25.85, 4.91 27.8, 7.22 27.38 C9.54 26.96, 14.71 24.52, 17.31 22.97 C19.91 21.42, 21.22 18.85, 22.83 18.08 C24.44 17.32, 26.31 19.1, 26.97 18.39 C27.63 17.68, 26.04 15.63, 26.8 13.84 C27.55 12.06, 30.62 9.82, 31.5 7.69 C32.38 5.55, 31.62 3.23, 32.09 1.02 C32.55 -1.18, 34.32 -6.54, 34.3 -5.54 C34.27 -4.54, 33.91 4.87, 31.92 7.05 C29.93 9.23, 25.08 7.15, 22.35 7.55 C19.61 7.95, 18 9.32, 15.5 9.44 C13.01 9.56, 9.7 9, 7.39 8.27 C5.08 7.54, 2.83 6.17, 1.67 5.06 C0.51 3.95, 1.01 2.2, 0.44 1.59" stroke="none" stroke-width="0" fill="#228be6" fill-rule="evenodd"></path><path d="M-1.03 -0.95 C-1.64 -0.95, -2.7 -0.63, -4.77 0.77 C-6.84 2.17, -11.89 5.22, -13.44 7.44 C-14.99 9.65, -14.67 11.79, -14.07 14.04 C-13.46 16.29, -11.36 19.02, -9.8 20.95 C-8.23 22.88, -6.07 24.55, -4.66 25.61 C-3.26 26.66, -3.07 26.74, -1.36 27.28 C0.34 27.81, 3.59 28.96, 5.55 28.81 C7.51 28.66, 8.67 27, 10.4 26.35 C12.14 25.7, 14.23 25.83, 15.95 24.92 C17.67 24, 19.1 22.35, 20.72 20.86 C22.33 19.36, 24.17 17.24, 25.62 15.94 C27.07 14.65, 28.52 14.46, 29.43 13.08 C30.33 11.7, 30.63 9.41, 31.07 7.67 C31.51 5.93, 31.58 4.41, 32.04 2.64 C32.5 0.86, 34.26 -3.17, 33.81 -2.98 C33.36 -2.79, 31.29 1.75, 29.33 3.78 C27.38 5.81, 24.63 8.02, 22.07 9.19 C19.5 10.35, 16.46 11.1, 13.95 10.77 C11.43 10.44, 8.67 8, 6.99 7.2 C5.31 6.4, 5.06 7.07, 3.87 5.98 C2.67 4.89, 0.53 1.67, -0.18 0.68 M0.63 1.17 C-0.05 0.75, -3.31 -2.23, -5.77 -1.02 C-8.22 0.19, -12.68 5.81, -14.1 8.41 C-15.52 11.02, -14.8 12.46, -14.31 14.62 C-13.82 16.79, -12.49 19.66, -11.17 21.39 C-9.85 23.12, -8.03 24.2, -6.38 25.01 C-4.72 25.83, -3.06 25.59, -1.24 26.26 C0.59 26.92, 2.84 28.63, 4.59 29 C6.33 29.37, 7.22 29.13, 9.22 28.47 C11.21 27.8, 14.58 26.08, 16.54 25.01 C18.5 23.94, 19.7 23.67, 20.97 22.05 C22.23 20.42, 23.19 16.86, 24.13 15.26 C25.07 13.67, 25.53 13.85, 26.59 12.49 C27.65 11.14, 29.55 8.91, 30.49 7.13 C31.43 5.34, 31.51 3.86, 32.21 1.81 C32.91 -0.24, 34.81 -5.53, 34.69 -5.17 C34.57 -4.8, 33.3 1.55, 31.49 3.99 C29.67 6.43, 26.45 8.31, 23.82 9.47 C21.19 10.64, 18.45 11.14, 15.71 10.97 C12.98 10.81, 9.51 9.49, 7.42 8.49 C5.34 7.48, 4.46 6.42, 3.22 4.95 C1.99 3.48, 0.65 0.64, 0.01 -0.31" stroke="#1e1e1e" stroke-width="1" fill="none"></path></g></g><mask></mask><g stroke-linecap="round"><g transform="translate(418.648082195632 76.76563111294166) rotate(0 17.11892660166643 -13.96045305892352)" fill-rule="evenodd"><path d="M2.31 2.39 C3.59 2.24, 6.17 -0.9, 6.85 -1.72 C7.53 -2.55, 5.36 -1.87, 6.37 -2.57 C7.39 -3.27, 12.14 -4.38, 12.96 -5.93 C13.77 -7.49, 10.44 -10.42, 11.25 -11.9 C12.07 -13.38, 15.86 -12.88, 17.83 -14.82 C19.81 -16.75, 22.21 -20.63, 23.12 -23.52 C24.04 -26.42, 24.63 -29.94, 23.34 -32.2 C22.04 -34.46, 15.85 -37.02, 15.35 -37.07 C14.85 -37.13, 18.13 -34.21, 20.36 -32.52 C22.58 -30.83, 26.91 -28.75, 28.72 -26.93 C30.53 -25.11, 30.42 -23.43, 31.2 -21.59 C31.98 -19.75, 32.62 -18.53, 33.41 -15.9 C34.21 -13.27, 35.98 -7.58, 35.96 -5.84 C35.95 -4.1, 33.89 -6.16, 33.34 -5.46 C32.79 -4.77, 33.22 -3.5, 32.69 -1.68 C32.15 0.15, 31.85 3.88, 30.13 5.49 C28.42 7.1, 24.37 6.81, 22.39 7.97 C20.41 9.13, 20.17 11.7, 18.26 12.46 C16.35 13.22, 12.78 13.07, 10.92 12.53 C9.05 11.99, 8.38 10.18, 7.08 9.23 C5.77 8.28, 3.95 8.18, 3.11 6.82 C2.27 5.47, 2.73 2.14, 2.01 1.12 C1.29 0.1, -0.63 0.91, -1.2 0.7" stroke="none" stroke-width="0" fill="#40c057" fill-rule="evenodd"></path><path d="M-0.09 0.64 C0.85 0.75, 3.44 0.23, 4.63 -0.27 C5.81 -0.77, 5.83 -1.69, 7.03 -2.38 C8.23 -3.08, 10.6 -3.38, 11.81 -4.45 C13.02 -5.51, 13.07 -7.01, 14.29 -8.75 C15.5 -10.5, 17.78 -12.78, 19.1 -14.92 C20.43 -17.06, 21.7 -19.07, 22.23 -21.6 C22.76 -24.13, 23.68 -27.39, 22.28 -30.12 C20.87 -32.85, 13.9 -37.46, 13.8 -38 C13.71 -38.54, 19.38 -35.21, 21.73 -33.34 C24.08 -31.47, 26.09 -29.15, 27.9 -26.76 C29.71 -24.37, 31.66 -21.06, 32.58 -19.01 C33.51 -16.95, 33.31 -16.17, 33.47 -14.44 C33.63 -12.71, 33.48 -10.47, 33.56 -8.61 C33.64 -6.74, 34.26 -4.46, 33.94 -3.24 C33.61 -2.01, 32.49 -2.72, 31.61 -1.28 C30.72 0.16, 30.1 3.77, 28.64 5.4 C27.17 7.03, 24.61 7.77, 22.79 8.49 C20.97 9.21, 19.28 9.24, 17.72 9.73 C16.17 10.22, 15.21 11.49, 13.47 11.41 C11.73 11.34, 9.1 10.09, 7.27 9.27 C5.45 8.46, 3.73 7.47, 2.53 6.52 C1.32 5.56, 0.6 4.44, 0.01 3.52 C-0.57 2.6, -0.86 1.41, -0.98 1.02 M-1.6 -0.07 C-0.71 0.28, 1.94 1.18, 3.78 0.93 C5.62 0.67, 8.04 -0.88, 9.44 -1.59 C10.83 -2.29, 11.5 -2.23, 12.15 -3.29 C12.8 -4.34, 12.04 -5.86, 13.35 -7.92 C14.66 -9.98, 18.4 -13.22, 20 -15.63 C21.6 -18.05, 22.64 -19.91, 22.93 -22.41 C23.22 -24.91, 22.96 -27.88, 21.74 -30.62 C20.52 -33.36, 15.5 -38.34, 15.61 -38.84 C15.73 -39.33, 20.34 -35.72, 22.43 -33.59 C24.51 -31.45, 26.58 -28.43, 28.14 -26.03 C29.69 -23.63, 30.81 -21.54, 31.76 -19.2 C32.71 -16.85, 33.67 -13.64, 33.83 -11.96 C33.98 -10.27, 32.65 -10.47, 32.7 -9.07 C32.74 -7.67, 34.16 -4.99, 34.11 -3.57 C34.06 -2.15, 33 -2.17, 32.39 -0.56 C31.77 1.04, 31.71 4.5, 30.42 6.06 C29.13 7.62, 27.01 8.25, 24.66 8.81 C22.3 9.36, 18 9.23, 16.29 9.39 C14.58 9.55, 16.09 9.95, 14.4 9.79 C12.7 9.63, 8.06 9.21, 6.09 8.44 C4.13 7.68, 3.67 6.1, 2.61 5.2 C1.55 4.3, 0.15 3.8, -0.26 3.04 C-0.68 2.29, 0 1.44, 0.13 0.67" stroke="#1e1e1e" stroke-width="1" fill="none"></path></g></g><mask></mask><g stroke-linecap="round"><g transform="translate(548.5275238837785 197.56506416402306) rotate(0 30.500095186056456 16.552393255242748)" fill-rule="evenodd"><path d="M1.57 -0.84 C2.03 -1.67, 1.42 -5.36, 2.03 -6.82 C2.65 -8.28, 3.33 -8.59, 5.25 -9.6 C7.16 -10.6, 11.87 -12.13, 13.53 -12.85 C15.2 -13.57, 9.6 -13.71, 15.22 -13.9 C20.83 -14.09, 40.78 -14.61, 47.22 -14 C53.65 -13.39, 51.86 -11.6, 53.83 -10.25 C55.8 -8.91, 57.9 -7.68, 59.02 -5.92 C60.15 -4.16, 59.95 -3.94, 60.61 0.31 C61.26 4.57, 63.75 15.61, 62.97 19.62 C62.19 23.62, 57.96 22.03, 55.93 24.33 C53.9 26.62, 52.23 31.77, 50.8 33.39 C49.36 35.01, 52.83 34.05, 47.33 34.07 C41.83 34.1, 21.93 32.58, 17.81 33.55 C13.69 34.52, 20.34 38.46, 22.62 39.92 C24.89 41.37, 28.1 42.43, 31.47 42.28 C34.83 42.13, 40.98 38.48, 42.83 39.03 C44.68 39.57, 44.22 44.1, 42.55 45.52 C40.89 46.94, 37.1 47.3, 32.86 47.54 C28.62 47.78, 21.59 47.92, 17.12 46.96 C12.65 46, 8.48 44.07, 6.04 41.79 C3.6 39.5, 3.38 35.83, 2.48 33.25 C1.58 30.67, 0.66 32.28, 0.65 26.32 C0.63 20.37, 2.85 2.51, 2.4 -2.49" stroke="none" stroke-width="0" fill="#7950f2" fill-rule="evenodd"></path><path d="M-1.12 -0.98 C-0.64 -2.13, 1.76 -5.24, 2.82 -6.97 C3.87 -8.7, 3.42 -10.11, 5.21 -11.35 C7.01 -12.59, 11.51 -13.71, 13.59 -14.39 C15.67 -15.07, 11.97 -15.17, 17.7 -15.42 C23.43 -15.67, 41.68 -16.55, 47.99 -15.87 C54.3 -15.19, 53.75 -12.87, 55.55 -11.34 C57.34 -9.8, 57.91 -8.87, 58.76 -6.66 C59.6 -4.45, 60.24 -2.49, 60.6 1.91 C60.96 6.31, 61.27 15.57, 60.92 19.74 C60.56 23.9, 60.03 24.84, 58.47 26.9 C56.91 28.96, 53.73 31.06, 51.57 32.1 C49.41 33.14, 51.04 33.19, 45.51 33.14 C39.99 33.09, 22.11 30.77, 18.41 31.8 C14.71 32.82, 21.31 37.67, 23.31 39.3 C25.32 40.94, 27.18 41.5, 30.43 41.59 C33.68 41.68, 40.92 39.18, 42.81 39.87 C44.7 40.56, 43.64 44.12, 41.78 45.74 C39.92 47.36, 35.91 49.48, 31.66 49.57 C27.42 49.66, 20.1 47.51, 16.3 46.28 C12.5 45.05, 11.01 44.01, 8.85 42.21 C6.69 40.4, 4.91 38.17, 3.35 35.44 C1.79 32.7, -0.06 32.15, -0.5 25.82 C-0.93 19.49, 0.85 2.12, 0.77 -2.52 M0.49 1.12 C0.92 0.1, 1.28 -4.04, 2.47 -5.91 C3.65 -7.78, 6.19 -8.87, 7.58 -10.08 C8.96 -11.29, 9.32 -12.36, 10.78 -13.16 C12.24 -13.97, 9.89 -14.83, 16.35 -14.92 C22.81 -15.02, 43.42 -14.11, 49.54 -13.73 C55.67 -13.35, 51.18 -13.83, 53.11 -12.63 C55.03 -11.43, 59.55 -8.8, 61.09 -6.53 C62.64 -4.26, 62.25 -3.81, 62.38 1.01 C62.5 5.82, 62.39 17.86, 61.82 22.37 C61.25 26.88, 60.9 26.46, 58.96 28.07 C57.03 29.68, 52.42 31.35, 50.23 32.03 C48.04 32.71, 51.27 32.28, 45.82 32.16 C40.36 32.03, 21.17 29.65, 17.49 31.27 C13.8 32.89, 21.41 39.93, 23.71 41.87 C26.01 43.8, 28.25 43.15, 31.3 42.89 C34.34 42.62, 40.47 39.69, 41.98 40.28 C43.49 40.88, 42.35 44.81, 40.37 46.47 C38.4 48.14, 34.08 50.06, 30.13 50.26 C26.19 50.46, 20.33 49.23, 16.7 47.66 C13.07 46.1, 10.49 43.11, 8.35 40.86 C6.22 38.61, 5.46 36.76, 3.89 34.16 C2.33 31.56, -0.23 30.99, -1.04 25.28 C-1.85 19.57, -1.13 4.41, -0.94 -0.1" stroke="#1e1e1e" stroke-width="1" fill="none"></path></g></g><mask></mask><g stroke-linecap="round"><g transform="translate(559.450422986223 220.41912997836846) rotate(0 20.16535218912827 -14.031724231601743)" fill-rule="evenodd"><path d="M0.35 -0.77 C1.19 -0.33, 5.24 4.6, 6.59 1.83 C7.95 -0.94, 8.01 -13.79, 8.49 -17.39 C8.98 -20.99, 8.37 -19.59, 9.5 -19.78 C10.64 -19.97, 14.2 -21.02, 15.29 -18.54 C16.38 -16.05, 14.75 -7.26, 16.02 -4.87 C17.29 -2.49, 21.74 -1.94, 22.89 -4.24 C24.05 -6.54, 22.08 -15.57, 22.96 -18.68 C23.85 -21.79, 27.25 -22.03, 28.18 -22.9 C29.11 -23.77, 27.8 -25.21, 28.54 -23.9 C29.28 -22.58, 31.64 -19.12, 32.65 -15.01 C33.65 -10.89, 33.45 -2, 34.56 0.8 C35.67 3.6, 38.59 5.69, 39.32 1.79 C40.04 -2.11, 39.5 -17.72, 38.92 -22.59 C38.34 -27.47, 37.62 -26.19, 35.83 -27.46 C34.05 -28.73, 30.31 -30.36, 28.21 -30.21 C26.11 -30.06, 24.39 -27.82, 23.23 -26.57 C22.07 -25.32, 22.06 -22.72, 21.26 -22.7 C20.47 -22.68, 20.16 -25.37, 18.46 -26.47 C16.77 -27.57, 13.35 -28.64, 11.08 -29.3 C8.81 -29.96, 6.48 -31.53, 4.83 -30.44 C3.18 -29.35, 1.55 -24.46, 1.15 -22.75 C0.75 -21.03, 2.96 -23.62, 2.4 -20.14 C1.84 -16.66, -1.79 -4.94, -2.21 -1.87" stroke="none" stroke-width="0" fill="#ffffff" fill-rule="evenodd"></path><path d="M1.14 -0.92 C2.42 -0.74, 5.32 3.08, 6.56 0.08 C7.79 -2.92, 7.64 -15.36, 8.55 -18.93 C9.45 -22.49, 10.73 -21.06, 11.99 -21.3 C13.24 -21.55, 15.1 -22.97, 16.06 -20.41 C17.02 -17.85, 16.64 -8.53, 17.74 -5.96 C18.83 -3.39, 21.76 -3.13, 22.63 -4.98 C23.5 -6.83, 22.37 -14.11, 22.96 -17.08 C23.54 -20.04, 24.78 -22.07, 26.13 -22.78 C27.49 -23.48, 29.87 -22.4, 31.08 -21.32 C32.3 -20.25, 33.14 -19.83, 33.42 -16.3 C33.7 -12.77, 31.66 -2.85, 32.74 -0.13 C33.83 2.59, 38.77 3.88, 39.92 0.04 C41.06 -3.81, 40.47 -18.51, 39.61 -23.21 C38.76 -27.91, 36.71 -27.12, 34.8 -28.15 C32.9 -29.17, 30.25 -29.67, 28.19 -29.37 C26.13 -29.07, 23.81 -27.8, 22.45 -26.35 C21.1 -24.9, 20.87 -20.54, 20.07 -20.68 C19.27 -20.81, 18.67 -25.79, 17.65 -27.16 C16.62 -28.52, 15.88 -28.69, 13.89 -28.88 C11.9 -29.06, 8.01 -29.19, 5.7 -28.25 C3.39 -27.32, 0.83 -24.6, 0.01 -23.25 C-0.81 -21.9, 0.96 -24.02, 0.77 -20.17 C0.57 -16.32, -0.97 -3.37, -1.15 -0.15 M0.27 1.22 C2.02 1.67, 7.39 4.68, 8.74 1.57 C10.09 -1.55, 7.78 -13.88, 8.39 -17.49 C8.99 -21.1, 11.29 -19.59, 12.35 -20.09 C13.41 -20.59, 14.11 -22.69, 14.73 -20.5 C15.35 -18.31, 14.69 -9.39, 16.07 -6.95 C17.44 -4.51, 22.03 -4.19, 22.97 -5.85 C23.91 -7.52, 21.45 -14.4, 21.72 -16.94 C21.99 -19.48, 22.87 -20.3, 24.59 -21.08 C26.31 -21.85, 30.48 -22, 32.02 -21.59 C33.56 -21.18, 33.92 -22.1, 33.82 -18.62 C33.71 -15.14, 30.39 -3.63, 31.4 -0.71 C32.42 2.2, 38.67 2.75, 39.93 -1.12 C41.19 -4.99, 39.8 -19.35, 38.98 -23.94 C38.15 -28.53, 37.13 -27.91, 34.96 -28.66 C32.8 -29.41, 28.3 -29.02, 25.99 -28.45 C23.67 -27.88, 22.3 -26.66, 21.08 -25.23 C19.86 -23.81, 19.46 -19.51, 18.64 -19.87 C17.82 -20.23, 17.39 -26.18, 16.17 -27.4 C14.95 -28.61, 13.19 -26.83, 11.31 -27.16 C9.42 -27.49, 6.8 -29.84, 4.87 -29.36 C2.95 -28.88, 0.41 -26.22, -0.23 -24.28 C-0.86 -22.34, 1.04 -21.59, 1.06 -17.73 C1.08 -13.87, -0.13 -3.9, -0.12 -1.12" stroke="#1e1e1e" stroke-width="1" fill="none"></path></g></g><mask></mask></svg>